<svg xmlns="http://www.w3.org/2000/svg" viewBox="0 0 128 128"><path fill="#00ADD8" d="M64 0C28.65 0 0 28.65 0 64s28.65 64 64 64 64-28.65 64-64S99.35 0 64 0zm0 118.4c-30.02 0-54.4-24.38-54.4-54.4S33.98 9.6 64 9.6 118.4 33.98 118.4 64 94.02 118.4 64 118.4z"/><path fill="#FFF" d="M64 12.8c-28.2 0-51.2 23-51.2 51.2S35.8 115.2 64 115.2 115.2 92.2 115.2 64 92.2 12.8 64 12.8zm0 96c-24.75 0-44.8-20.05-44.8-44.8S39.25 19.2 64 19.2 108.8 39.25 108.8 64 88.75 108.8 64 108.8z"/><path fill="#FFF" d="M64 25.6c-21.2 0-38.4 17.2-38.4 38.4S42.8 102.4 64 102.4 102.4 85.2 102.4 64 85.2 25.6 64 25.6zm0 70.4c-17.7 0-32-14.3-32-32s14.3-32 32-32 32 14.3 32 32-14.3 32-32 32z"/><path fill="#FFF" d="M64 38.4c-14.1 0-25.6 11.5-25.6 25.6S49.9 89.6 64 89.6 89.6 78.1 89.6 64 78.1 38.4 64 38.4zm0 51.2c-14.1 0-25.6-11.5-25.6-25.6S49.9 38.4 64 38.4 89.6 49.9 89.6 64 78.1 89.6 64 89.6z"/></svg>
